<svg xmlns="http://www.w3.org/2000/svg" aria-hidden="true" style="position:absolute;width:0;height:0;overflow:hidden">
    <defs>
        <symbol id="icon-exclamation_point" viewBox="0 0 7 32">
            <path fill="#9be1a0" style="fill: var(--color1, #9be1a0)" d="M0.859 18.084c0.121 1.311 0.332 2.291 0.633 2.924 0.301 0.648 0.829 0.964 1.582 0.964 0.151 0 0.271-0.015 0.407-0.045 0.121 0.030 0.256 0.045 0.392 0.045 0.769 0 1.296-0.316 1.582-0.964 0.301-0.633 0.512-1.612 0.633-2.924l0.678-10.127c0.136-1.974 0.196-3.391 0.196-4.25 0-1.16-0.301-2.080-0.919-2.728-0.618-0.663-1.417-0.98-2.426-0.98-0.045 0-0.090 0-0.136 0-0.060 0-0.090 0-0.151 0-0.995 0-1.808 0.316-2.411 0.98-0.618 0.648-0.919 1.567-0.919 2.728 0 0.859 0.060 2.276 0.181 4.25l0.678 10.127zM3.496 25.679c-0.964 0-1.793 0.301-2.471 0.919-0.693 0.603-1.025 1.356-1.025 2.23 0 0.98 0.347 1.748 1.025 2.321 0.693 0.558 1.507 0.844 2.426 0.844 0.934 0 1.763-0.271 2.456-0.829 0.708-0.558 1.055-1.341 1.055-2.336 0-0.874-0.332-1.628-1.010-2.23-0.663-0.618-1.492-0.919-2.456-0.919v0z"></path>
        </symbol>
        <symbol id="arrow" viewBox="0 0 24 24">
            <path d="M14 17L19 12L14 7" fill="#F9F9F9" stroke-width="2" stroke-linecap="round" stroke-linejoin="round" />
            <path d="M19 12H5" fill="#F9F9F9" stroke-width="2" stroke-linecap="round" stroke-linejoin="round" />
        </symbol>
        <symbol id="logo" viewBox="0 0 42 17">
            <path d="M0 11V0H12.8903C14.6428 0 16.3497 0.558477 17.7633 1.59437C18.6084 2.21371 19.2833 3.0366 19.7252 3.98661L21.2165 7.19231C21.7922 5.78595 22.5143 4.44406 23.3707 3.18876L23.4446 3.08053C23.6905 2.72004 23.9717 2.38484 24.2838 2.07984L24.919 1.4592C25.333 1.05464 25.8242 0.737558 26.3634 0.526835L26.4183 0.505373C27.2728 0.171398 28.1822 0 29.0996 0H42V11H0Z" fill="#F9F9F9" />
            <rect y="13" width="42" height="4" fill="#F9F9F9" />
        </symbol>
    </defs>
</svg>